<svg width="523" height="101" viewBox="0 0 523 101" fill="none" xmlns="http://www.w3.org/2000/svg">
<g clip-path="url(#clip0_356_5)">
<path d="M38.74 23.33L38.59 100.8H69.7V30.96L54.29 23.33H108.58V0H0V23.33H38.74Z" fill="#17CBB7"/>
<path d="M141.61 100.8H211.45C214.51 100.811 217.541 100.214 220.368 99.043C223.195 97.8725 225.761 96.1521 227.918 93.9815C230.075 91.811 231.778 89.2337 232.931 86.3992C234.083 83.5647 234.661 80.5296 234.63 77.47L234.78 0H203.78L203.63 77.47H149.39L149.53 0H118.53L118.39 77.47C118.373 80.5293 118.961 83.5617 120.12 86.3928C121.28 89.2239 122.988 91.7977 125.146 93.9661C127.304 96.1344 129.87 97.8546 132.695 99.0274C135.521 100.2 138.551 100.803 141.61 100.8V100.8Z" fill="#17CBB7"/>
<path d="M269.3 100.8H315.81C318.881 100.819 321.925 100.228 324.766 99.0627C327.607 97.8973 330.189 96.1801 332.362 94.0106C334.535 91.841 336.257 89.2621 337.427 86.4229C338.597 83.5838 339.193 80.5408 339.18 77.47L339.32 0H308.18L308.04 77.47H277.04V62.06H246.04V77.47C246.023 80.5326 246.612 83.5684 247.774 86.4021C248.936 89.2358 250.648 91.8114 252.81 93.9803C254.972 96.1492 257.543 97.8685 260.373 99.0389C263.203 100.209 266.237 100.808 269.3 100.8Z" fill="#17CBB7"/>
<path d="M357.08 0V100.8H388.08L388.18 0H357.08Z" fill="#17CBB7"/>
<path d="M406.18 23.33L406.04 100.8H437.04V30.96L421.63 23.33H491.47V54.33H452.52C452.52 65.56 465.19 77.51 477.14 77.51H491.25V100.8H522.25L522.4 23.33C522.417 20.2708 521.829 17.2383 520.67 14.4072C519.51 11.5761 517.802 9.00233 515.644 6.83396C513.486 4.66559 510.92 2.94547 508.095 1.77262C505.269 0.599769 502.239 -0.00264892 499.18 3.64584e-05H429.33C426.273 -0.005393 423.246 0.595655 420.423 1.76841C417.6 2.94116 415.038 4.66231 412.885 6.83216C410.731 9.00201 409.03 11.5775 407.879 14.4094C406.729 17.2413 406.151 20.2733 406.18 23.33V23.33Z" fill="#17CBB7"/>
</g>
<rect x="0.5" y="0.5" width="521.36" height="99.8" stroke="black"/>
<defs>
<clipPath id="clip0_356_5">
<rect width="522.36" height="100.8" fill="white"/>
</clipPath>
</defs>
</svg>
